<?xml version="1.0" encoding="utf-8"?>
<!-- Generator: Adobe Illustrator 21.1.0, SVG Export Plug-In . SVG Version: 6.00 Build 0)  -->
<svg version="1.1" id="Calque_1" xmlns="http://www.w3.org/2000/svg" xmlns:xlink="http://www.w3.org/1999/xlink" x="0px" y="0px"
	 viewBox="0 0 500 500" style="enable-background:new 0 0 500 500;" xml:space="preserve">
<style type="text/css">
	.st0{opacity:0.26;}
	.st1{fill:#418ECC;}
</style>
<g class="st0">
	<path class="st1" d="M1,21h4V9H1V21z M23,10c0-1.1-0.9-2-2-2h-6.3l0.9-4.6l0-0.3c0-0.4-0.2-0.8-0.4-1.1L14.2,1L7.6,7.6
		C7.2,7.9,7,8.4,7,9v10c0,1.1,0.9,2,2,2h9c0.8,0,1.5-0.5,1.8-1.2l3-7C23,12.5,23,12.3,23,12V10L23,10L23,10z"/>
</g>
<g>
	<path class="st1" d="M22.5,7.1c-0.1,3.6-0.5,6.4-1.4,9.2c-0.8,2.4-1.9,5-4.5,5.3c-4.1,0.5-8.7,1.2-11.1-3.7
		c-0.8-1.7-1.8-3.1-3.3-4.3c-2.1-1.6-1.7-4-1-6.1C1.7,5.8,3,5,5,5.1c2.3,0.1,3.6,1.2,4.2,3.3c0.2,0.7,0.4,1.5,1.2,1.5
		c2.2,0.1,3.6,1.1,4.4,3.2c0.3,0.7,1,0.6,1.5,0c1-1.4,2-2.9,2.9-4.4c0.8-1.4,1.3-2.8-1.2-3.2c-0.9-0.1-1.5-0.9-1.5-1.9
		c0-1.1,0.9-1.7,1.7-2.2c0.9-0.6,1.7-0.1,2.4,0.5C22.4,3.3,22.6,5.5,22.5,7.1z"/>
</g>
</svg>
